<?xml version="1.0" encoding="utf-8"?>
<!-- Generator: Adobe Illustrator 23.0.3, SVG Export Plug-In . SVG Version: 6.00 Build 0)  -->
<svg version="1.1" id="Capa_1" xmlns="http://www.w3.org/2000/svg" xmlns:xlink="http://www.w3.org/1999/xlink" x="0px" y="0px"
	 viewBox="0 0 595.3 841.9" style="enable-background:new 0 0 595.3 841.9;" xml:space="preserve">
<style type="text/css">
	.st0{fill:#603813;}
	.st1{fill:#FFFFFF;}
</style>
<g>
	<path class="st0" d="M283.7,138.2c5.5,0,11.1,0,16.6,0c0.7,0.2,1.5,0.6,2.2,0.7c38.5,4.8,66.3,24.8,83.6,59.3c1,2,2.1,2.6,4.2,2.6
		c4.1,0.1,8.2,0.3,12.2,0.9c59.1,8.2,98.8,62.6,88.6,121.4c-0.5,2.9,0.3,4.2,2.6,5.6c23.7,15.4,38.9,36.8,45.5,64.3
		c1.2,4.8,1.9,9.7,2.8,14.6c0,5.8,0,11.6,0,17.4c-0.3,1-0.7,2-0.8,3c-8.5,74.9-91.4,116.1-156.3,77.7c-1.2-0.7-2.5-1.4-3.7-2
		c-0.5,0.4-0.8,0.7-1,1c-8.8,12.8-19.8,23.2-33,31.2c-1.1,0.7-2,2.4-2.1,3.8c-0.7,8.3-1.4,16.5-1.6,24.8
		c-0.6,22.5,0.9,44.7,7.3,66.4c6.1,20.6,15.8,38.7,35.1,50.1c0.1,0.1,0.1,0.4,0.1,0.6c-7.4-0.8-22.5-6.2-30.6-11.1
		c-7.3-4.4-13.5-9.7-15.2-18.6c-16.8,4.5-25.8,21-25.4,47.1c-5.2-5-8.9-10.5-11-16.9c-2.2-6.6-1.8-13.2-0.3-19.4
		c-5.8,8.1-11.3,16.6-17.6,24.4c-3.4,4.2-8,7.6-12.6,10.6c-2.7,1.7-6.4,1.9-9.6,2.7c-0.2-0.5-0.4-0.9-0.6-1.4
		c7.8-3.3,12.3-9.3,14.8-17c2.4-7.5,2.6-15.2,0.8-23.5c-23,8.2-34.3,27.4-46.2,46.2c0.7-14.2-0.3-28.6,6.5-42.1
		c-7,4.7-13.1,10.5-19.5,15.9c-6.4,5.5-12.7,11-19,16.5c-0.3-0.3-0.6-0.6-0.9-0.9c2.8-3.2,5.6-6.5,8.5-9.7
		c5.1-5.5,10.8-10.5,15.5-16.3c27.9-34.8,39.6-75.1,39.9-119.2c0-2.5-1.1-3.3-3.2-4.1c-19.1-6.7-35-18-47.6-33.8
		c-0.6-0.8-1.4-1.5-2.1-2.3c-1.1,0.6-2,1.1-2.9,1.6c-60.8,33.5-135.5,0.6-151.8-67c-1.2-4.9-1.9-10-2.9-15c0-5.8,0-11.6,0-17.4
		c0.3-0.9,0.6-1.7,0.7-2.6c3.9-31.9,19.2-56.9,45.6-75c2.6-1.8,2.9-3.3,2-6.1c-4.7-15.2-5.7-30.8-2.9-46.4c8.6-49,48.1-84,97.9-86.7
		c2.8-0.2,4.4-1.1,5.8-3.5c15.8-26.6,38.8-43.4,69.2-49.9C275.4,139.6,279.6,138.9,283.7,138.2z M311.6,496.5
		c-2.9,3.1-3.1,6.7-2.4,10.2c1.2,5.6,2.7,11.2,4.6,16.7c2.6,7.5,3.6,7.7,11.2,4.8c9.2-3.5,16.5-9.7,23.5-16.3c1.5-1.4,3-3,4.4-4.5
		C336.7,512.5,323.1,508.8,311.6,496.5z M290.6,505c-0.3-0.1-0.7-0.2-1-0.3c-9.3,10.3-20.4,13.6-33.9,9.2c5,5,10.1,9.7,15.7,13.7
		c3.2,2.3,7.3,3.4,11,5c1.9,0.8,3.3,0.2,3.9-2c1.7-5.8,3.7-11.5,5-17.3C291.9,510.7,290.9,507.8,290.6,505z"/>
</g>
<g>
	<path class="st1" d="M204.8,316.3v23.4h-9.6v-58.5h16.5c7.6,0,13.1,1.4,16.8,4.2c3.6,2.8,5.4,7.1,5.4,12.8
		c0,7.3-3.8,12.5-11.4,15.6l16.5,25.9h-10.9l-14-23.4H204.8z M204.8,308.4h6.6c4.5,0,7.7-0.8,9.7-2.5s3-4.1,3-7.4s-1.1-5.7-3.2-7.1
		c-2.2-1.4-5.4-2.2-9.8-2.2h-6.3V308.4z"/>
	<path class="st1" d="M266,340.5c-6.9,0-12.3-2-16.2-6s-5.8-9.5-5.8-16.6c0-7.2,1.8-12.9,5.4-17.1c3.6-4.1,8.6-6.2,14.8-6.2
		c5.8,0,10.5,1.8,13.8,5.3s5.1,8.4,5.1,14.6v5.1h-29.5c0.1,4.3,1.3,7.6,3.5,9.9c2.2,2.3,5.3,3.5,9.2,3.5c2.6,0,5-0.2,7.3-0.7
		s4.7-1.3,7.3-2.5v7.6c-2.3,1.1-4.6,1.9-7,2.3C271.7,340.3,269,340.5,266,340.5z M264.2,301.8c-3,0-5.4,0.9-7.2,2.8
		c-1.8,1.9-2.9,4.7-3.2,8.3h20.1c-0.1-3.7-0.9-6.4-2.6-8.3C269.6,302.7,267.2,301.8,264.2,301.8z"/>
	<path class="st1" d="M321.6,339.7l-1.9-6.2h-0.3c-2.1,2.7-4.3,4.5-6.4,5.5c-2.2,1-4.9,1.5-8.3,1.5c-4.3,0-7.7-1.2-10.2-3.5
		c-2.4-2.3-3.7-5.7-3.7-10c0-4.6,1.7-8,5.1-10.3s8.6-3.6,15.5-3.8l7.6-0.2v-2.4c0-2.8-0.7-4.9-2-6.3s-3.4-2.1-6.1-2.1
		c-2.3,0-4.4,0.3-6.5,1s-4.1,1.5-6,2.4l-3-6.7c2.4-1.3,5-2.2,7.9-2.9c2.9-0.7,5.5-1,8.1-1c5.6,0,9.9,1.2,12.7,3.7
		c2.9,2.5,4.3,6.3,4.3,11.6v29.8h-6.8V339.7z M307.5,333.3c3.4,0,6.2-1,8.2-2.9c2.1-1.9,3.1-4.6,3.1-8v-3.8l-5.7,0.2
		c-4.4,0.2-7.7,0.9-9.7,2.2c-2,1.3-3,3.3-3,6.1c0,2,0.6,3.5,1.8,4.6C303.4,332.8,305.2,333.3,307.5,333.3z"/>
	<path class="st1" d="M359.3,340.5c-6.7,0-11.8-2-15.3-5.9s-5.2-9.5-5.2-16.8c0-7.4,1.8-13.2,5.5-17.2s8.9-6,15.8-6
		c4.7,0,8.9,0.9,12.6,2.6l-2.8,7.6c-4-1.5-7.3-2.3-9.8-2.3c-7.7,0-11.5,5.1-11.5,15.2c0,5,1,8.7,2.9,11.2s4.7,3.7,8.4,3.7
		c4.2,0,8.2-1,11.9-3.1v8.2c-1.7,1-3.5,1.7-5.4,2.1C364.3,340.3,362,340.5,359.3,340.5z"/>
	<path class="st1" d="M398.5,332.9c2.3,0,4.6-0.4,6.9-1.1v7.1c-1,0.5-2.4,0.8-4,1.1c-1.6,0.3-3.3,0.5-5.1,0.5
		c-8.9,0-13.4-4.7-13.4-14.1v-23.9h-6v-4.2l6.5-3.4l3.2-9.4h5.8v9.8H405v7.1h-12.6v23.7c0,2.3,0.6,3.9,1.7,5
		C395.2,332.4,396.6,332.9,398.5,332.9z"/>
	<path class="st1" d="M133.2,427.4l-17-48.9h-0.3c0.5,7.3,0.7,14.1,0.7,20.4v28.5h-8.7v-58.5h13.5l16.3,46.5h0.2l16.7-46.5h13.5
		v58.5H159v-28.9c0-2.9,0.1-6.7,0.2-11.4c0.1-4.7,0.3-7.5,0.4-8.5h-0.3l-17.6,48.8H133.2z"/>
	<path class="st1" d="M210.3,427.4l-1.9-6.2h-0.3c-2.1,2.7-4.3,4.5-6.4,5.5c-2.2,1-4.9,1.5-8.3,1.5c-4.3,0-7.7-1.2-10.2-3.5
		c-2.4-2.3-3.7-5.7-3.7-10c0-4.6,1.7-8,5.1-10.3c3.4-2.3,8.6-3.6,15.5-3.8l7.6-0.2V398c0-2.8-0.7-4.9-2-6.3s-3.4-2.1-6.1-2.1
		c-2.3,0-4.4,0.3-6.5,1s-4.1,1.5-6,2.4l-3-6.7c2.4-1.3,5-2.2,7.9-2.9c2.9-0.7,5.5-1,8.1-1c5.6,0,9.9,1.2,12.7,3.7
		c2.9,2.5,4.3,6.3,4.3,11.6v29.8h-6.8V427.4z M196.3,421c3.4,0,6.2-1,8.2-2.9c2.1-1.9,3.1-4.6,3.1-8v-3.8l-5.7,0.2
		c-4.4,0.2-7.7,0.9-9.7,2.2c-2,1.3-3,3.3-3,6.1c0,2,0.6,3.5,1.8,4.6C192.2,420.4,193.9,421,196.3,421z"/>
	<path class="st1" d="M267.5,383.1v5.2l-7.6,1.4c0.7,0.9,1.3,2.1,1.7,3.4s0.7,2.8,0.7,4.3c0,4.6-1.6,8.2-4.7,10.8
		c-3.1,2.6-7.5,3.9-13,3.9c-1.4,0-2.7-0.1-3.8-0.3c-2,1.3-3,2.7-3,4.4c0,1,0.5,1.8,1.4,2.3s2.7,0.8,5.2,0.8h7.7
		c4.9,0,8.6,1,11.1,3.1s3.8,5.1,3.8,9c0,5-2.1,8.9-6.2,11.6s-10.1,4.1-17.9,4.1c-6,0-10.6-1.1-13.8-3.2s-4.8-5.2-4.8-9.1
		c0-2.7,0.9-5,2.6-6.9c1.7-1.9,4.1-3.1,7.2-3.9c-1.3-0.5-2.3-1.4-3.1-2.6s-1.2-2.4-1.2-3.7c0-1.7,0.5-3.1,1.4-4.2s2.3-2.3,4.2-3.4
		c-2.3-1-4.2-2.6-5.6-4.8c-1.4-2.2-2.1-4.8-2.1-7.8c0-4.8,1.5-8.5,4.5-11.2c3-2.6,7.3-4,12.9-4c1.3,0,2.6,0.1,3.9,0.3
		c1.4,0.2,2.4,0.4,3.1,0.5L267.5,383.1L267.5,383.1z M232.7,434.3c0,2,0.9,3.6,2.7,4.7s4.4,1.6,7.7,1.6c5.1,0,8.9-0.7,11.4-2.2
		c2.5-1.5,3.8-3.4,3.8-5.8c0-1.9-0.7-3.3-2.1-4.1c-1.4-0.8-3.9-1.2-7.7-1.2h-7.1c-2.7,0-4.8,0.6-6.4,1.9
		C233.5,430.4,232.7,432.1,232.7,434.3z M236.8,397.4c0,2.8,0.7,4.9,2.1,6.4c1.4,1.5,3.5,2.2,6.1,2.2c5.4,0,8.2-2.9,8.2-8.7
		c0-2.9-0.7-5.1-2-6.7s-3.4-2.3-6.1-2.3c-2.7,0-4.8,0.8-6.2,2.3C237.5,392.2,236.8,394.5,236.8,397.4z"/>
	<path class="st1" d="M275.2,371.4c0-1.7,0.5-3,1.4-3.9s2.2-1.4,3.9-1.4c1.7,0,2.9,0.5,3.9,1.4c0.9,0.9,1.4,2.2,1.4,3.9
		c0,1.6-0.5,2.9-1.4,3.8s-2.2,1.4-3.9,1.4c-1.7,0-3-0.5-3.9-1.4C275.6,374.2,275.2,373,275.2,371.4z M285.1,427.4h-9.4v-44.3h9.4
		V427.4z"/>
	<path class="st1" d="M316.4,428.2c-6.7,0-11.8-2-15.3-5.9s-5.2-9.5-5.2-16.8c0-7.4,1.8-13.2,5.5-17.2c3.6-4,8.9-6,15.8-6
		c4.7,0,8.9,0.9,12.6,2.6l-2.8,7.6c-4-1.5-7.3-2.3-9.8-2.3c-7.7,0-11.5,5.1-11.5,15.2c0,5,1,8.7,2.9,11.2s4.7,3.7,8.4,3.7
		c4.2,0,8.2-1,11.9-3.1v8.2c-1.7,1-3.5,1.7-5.4,2.1C321.5,428,319.2,428.2,316.4,428.2z"/>
	<path class="st1" d="M338.6,371.4c0-1.7,0.5-3,1.4-3.9s2.2-1.4,3.9-1.4c1.7,0,2.9,0.5,3.9,1.4c0.9,0.9,1.4,2.2,1.4,3.9
		c0,1.6-0.5,2.9-1.4,3.8s-2.2,1.4-3.9,1.4c-1.7,0-3-0.5-3.9-1.4C339.1,374.2,338.6,373,338.6,371.4z M348.6,427.4h-9.4v-44.3h9.4
		V427.4z"/>
	<path class="st1" d="M389.7,427.4l-1.9-6.2h-0.3c-2.1,2.7-4.3,4.5-6.4,5.5c-2.2,1-4.9,1.5-8.3,1.5c-4.3,0-7.7-1.2-10.2-3.5
		c-2.4-2.3-3.7-5.7-3.7-10c0-4.6,1.7-8,5.1-10.3s8.6-3.6,15.5-3.8l7.6-0.2V398c0-2.8-0.7-4.9-2-6.3s-3.4-2.1-6.1-2.1
		c-2.3,0-4.4,0.3-6.5,1s-4.1,1.5-6,2.4l-3-6.7c2.4-1.3,5-2.2,7.9-2.9s5.5-1,8.1-1c5.6,0,9.9,1.2,12.7,3.7c2.9,2.5,4.3,6.3,4.3,11.6
		v29.8h-6.8V427.4z M375.7,421c3.4,0,6.2-1,8.2-2.9c2.1-1.9,3.1-4.6,3.1-8v-3.8l-5.7,0.2c-4.4,0.2-7.7,0.9-9.7,2.2
		c-2,1.3-3,3.3-3,6.1c0,2,0.6,3.5,1.8,4.6C371.6,420.4,373.4,421,375.7,421z"/>
	<path class="st1" d="M448.5,427.4h-9.4v-27.2c0-3.4-0.7-6-2.1-7.6c-1.4-1.7-3.6-2.5-6.5-2.5c-4,0-6.9,1.2-8.7,3.5
		c-1.8,2.3-2.8,6.3-2.8,11.8v22.1h-9.4v-44.3h7.4l1.3,5.8h0.5c1.3-2.1,3.2-3.7,5.7-4.9c2.5-1.1,5.2-1.7,8.2-1.7
		c10.6,0,15.9,5.4,15.9,16.2v28.8H448.5z"/>
	<path class="st1" d="M491.3,414.8c0,4.3-1.6,7.6-4.7,9.9s-7.7,3.5-13.5,3.5c-5.9,0-10.6-0.9-14.2-2.7v-8.1c5.2,2.4,10,3.6,14.5,3.6
		c5.8,0,8.7-1.7,8.7-5.2c0-1.1-0.3-2.1-1-2.8c-0.6-0.7-1.7-1.5-3.2-2.3s-3.5-1.7-6.1-2.7c-5.1-2-8.5-3.9-10.3-5.9s-2.7-4.5-2.7-7.7
		c0-3.8,1.5-6.7,4.6-8.8c3.1-2.1,7.2-3.1,12.5-3.1c5.2,0,10.1,1.1,14.8,3.2l-3,7.1c-4.8-2-8.8-3-12-3c-5,0-7.4,1.4-7.4,4.2
		c0,1.4,0.6,2.6,1.9,3.5c1.3,1,4.1,2.3,8.5,4c3.7,1.4,6.3,2.7,8,3.9c1.7,1.2,2.9,2.5,3.7,4.1C490.9,410.8,491.3,412.6,491.3,414.8z"
		/>
</g>
</svg>
