<?xml version="1.0" encoding="utf-8"?>
<!-- Generator: Adobe Illustrator 23.0.3, SVG Export Plug-In . SVG Version: 6.00 Build 0)  -->
<svg version="1.1" id="Capa_1" xmlns="http://www.w3.org/2000/svg" xmlns:xlink="http://www.w3.org/1999/xlink" x="0px" y="0px"
	 viewBox="0 0 595.3 841.9" style="enable-background:new 0 0 595.3 841.9;" xml:space="preserve">
<style type="text/css">
	.st0{fill:#603813;}
</style>
<g>
	<path class="st0" d="M283.7,138.2c5.5,0,11.1,0,16.6,0c0.7,0.2,1.5,0.6,2.2,0.7c38.5,4.8,66.3,24.8,83.6,59.3c1,2,2.1,2.6,4.2,2.6
		c4.1,0.1,8.2,0.3,12.2,0.9c59.1,8.2,98.8,62.6,88.6,121.4c-0.5,2.9,0.3,4.2,2.6,5.6c23.7,15.4,38.9,36.8,45.5,64.3
		c1.2,4.8,1.9,9.7,2.8,14.6c0,5.8,0,11.6,0,17.4c-0.3,1-0.7,2-0.8,3c-8.5,74.9-91.4,116.1-156.3,77.7c-1.2-0.7-2.5-1.4-3.7-2
		c-0.5,0.4-0.8,0.7-1,1c-8.8,12.8-19.8,23.2-33,31.2c-1.1,0.7-2,2.4-2.1,3.8c-0.7,8.3-1.4,16.5-1.6,24.8
		c-0.6,22.5,0.9,44.7,7.3,66.4c6.1,20.6,15.8,38.7,35.1,50.1c0.1,0.1,0.1,0.4,0.1,0.6c-7.4-0.8-22.5-6.2-30.6-11.1
		c-7.3-4.4-13.5-9.7-15.2-18.6c-16.8,4.5-25.8,21-25.4,47.1c-5.2-5-8.9-10.5-11-16.9c-2.2-6.6-1.8-13.2-0.3-19.4
		c-5.8,8.1-11.3,16.6-17.6,24.4c-3.4,4.2-8,7.6-12.6,10.6c-2.7,1.7-6.4,1.9-9.6,2.7c-0.2-0.5-0.4-0.9-0.6-1.4
		c7.8-3.3,12.3-9.3,14.8-17c2.4-7.5,2.6-15.2,0.8-23.5c-23,8.2-34.3,27.4-46.2,46.2c0.7-14.2-0.3-28.6,6.5-42.1
		c-7,4.7-13.1,10.5-19.5,15.9c-6.4,5.5-12.7,11-19,16.5c-0.3-0.3-0.6-0.6-0.9-0.9c2.8-3.2,5.6-6.5,8.5-9.7
		c5.1-5.5,10.8-10.5,15.5-16.3c27.9-34.8,39.6-75.1,39.9-119.2c0-2.5-1.1-3.3-3.2-4.1c-19.1-6.7-35-18-47.6-33.8
		c-0.6-0.8-1.4-1.5-2.1-2.3c-1.1,0.6-2,1.1-2.9,1.6c-60.8,33.5-135.5,0.6-151.8-67c-1.2-4.9-1.9-10-2.9-15c0-5.8,0-11.6,0-17.4
		c0.3-0.9,0.6-1.7,0.7-2.6c3.9-31.9,19.2-56.9,45.6-75c2.6-1.8,2.9-3.3,2-6.1c-4.7-15.2-5.7-30.8-2.9-46.4c8.6-49,48.1-84,97.9-86.7
		c2.8-0.2,4.4-1.1,5.8-3.5c15.8-26.6,38.8-43.4,69.2-49.9C275.4,139.6,279.6,138.9,283.7,138.2z M311.6,496.5
		c-2.9,3.1-3.1,6.7-2.4,10.2c1.2,5.6,2.7,11.2,4.6,16.7c2.6,7.5,3.6,7.7,11.2,4.8c9.2-3.5,16.5-9.7,23.5-16.3c1.5-1.4,3-3,4.4-4.5
		C336.7,512.5,323.1,508.8,311.6,496.5z M290.6,505c-0.3-0.1-0.7-0.2-1-0.3c-9.3,10.3-20.4,13.6-33.9,9.2c5,5,10.1,9.7,15.7,13.7
		c3.2,2.3,7.3,3.4,11,5c1.9,0.8,3.3,0.2,3.9-2c1.7-5.8,3.7-11.5,5-17.3C291.9,510.7,290.9,507.8,290.6,505z"/>
</g>
</svg>
